<?xml version="1.0" standalone="no"?>
<!DOCTYPE svg PUBLIC "-//W3C//DTD SVG 20010904//EN"
 "http://www.w3.org/TR/2001/REC-SVG-20010904/DTD/svg10.dtd">
<svg version="1.0" xmlns="http://www.w3.org/2000/svg"
 width="790.000000pt" height="790.000000pt" viewBox="0 0 790.000000 790.000000"
 preserveAspectRatio="xMidYMid meet">
<metadata>
Created by potrace 1.14, written by Peter Selinger 2001-2017
</metadata>
<g transform="translate(0.000000,790.000000) scale(0.100000,-0.100000)"
fill="#000000" stroke="none">
<path d="M3690 7881 c14 -11 29 -21 33 -21 8 0 103 -61 142 -90 160 -123 341
-375 479 -665 20 -44 42 -88 47 -98 18 -34 117 -304 162 -442 45 -138 123
-426 133 -495 3 -19 8 -38 10 -41 2 -4 6 -24 9 -45 4 -22 10 -52 14 -69 8 -35
-2 -99 -12 -75 -4 8 -29 78 -56 155 -105 302 -271 673 -390 873 -17 29 -31 54
-31 56 0 13 -176 288 -234 365 -159 214 -391 420 -576 513 -125 63 -172 66
-350 26 -25 -5 -56 -12 -70 -14 -14 -3 -65 -16 -115 -30 -458 -130 -796 -365
-1093 -759 -88 -117 -221 -363 -279 -512 -26 -69 -91 -255 -98 -283 -3 -8 -18
-64 -35 -125 -32 -116 -84 -355 -96 -440 -3 -27 -8 -58 -10 -68 -2 -10 -6 -48
-10 -85 -3 -36 -8 -75 -10 -85 -14 -73 -22 -435 -14 -622 4 -91 -1 -82 140
-205 78 -68 290 -277 350 -345 138 -157 220 -258 238 -292 7 -12 18 -28 26
-35 46 -47 202 -367 212 -438 5 -34 4 -33 -27 20 -184 322 -368 514 -679 710
-63 40 -156 101 -207 135 -104 71 -103 72 -118 -35 -33 -231 -24 -581 20 -812
3 -16 7 -38 9 -50 16 -91 83 -314 128 -428 102 -260 319 -624 537 -900 205
-260 492 -545 806 -799 203 -164 510 -391 530 -391 3 0 -21 39 -53 88 -124
184 -258 435 -354 662 -52 122 -148 383 -148 403 0 25 -25 46 -63 51 -225 34
-405 156 -524 354 -65 108 -94 212 -94 337 1 97 9 161 27 196 18 36 86 95 131
115 69 29 255 18 301 -19 10 -8 12 -2 8 29 -3 21 -8 66 -11 99 -3 33 -7 76
-10 95 -3 19 -7 67 -10 105 -3 39 -8 81 -10 95 -14 79 -24 592 -13 643 5 20
10 71 12 111 2 41 9 90 14 108 6 18 13 58 17 88 20 160 89 379 172 540 71 140
78 152 158 265 189 266 518 453 865 491 76 8 273 7 345 -1 202 -25 453 -133
610 -265 82 -68 232 -225 295 -310 l72 -95 -7 55 c-4 30 -7 123 -7 206 l-1
151 33 62 c36 67 82 109 157 144 67 30 228 35 305 8 162 -56 381 -204 543
-366 77 -77 245 -284 245 -301 0 -3 17 -31 39 -62 21 -31 52 -84 70 -116 17
-33 35 -64 40 -70 16 -20 123 -270 153 -356 79 -231 120 -437 143 -715 1 -22
4 -44 5 -50 4 -26 46 135 74 281 27 140 28 396 1 525 -35 174 -157 406 -263
499 -51 46 -154 106 -206 122 -35 11 -36 14 -53 102 -8 43 -53 234 -63 266 -6
19 -13 44 -15 54 -22 100 -145 422 -229 598 -128 270 -364 628 -560 848 -235
264 -525 490 -841 655 -155 80 -397 176 -535 211 -30 8 -111 17 -180 20 l-125
5 25 -20z"/>
<path d="M5039 4703 c-21 -5 -29 -32 -18 -60 19 -51 89 -47 89 5 0 16 -8 36
-18 45 -19 17 -24 18 -53 10z"/>
<path d="M5148 4623 c-37 -10 -19 -85 24 -96 30 -8 48 9 48 46 0 42 -28 62
-72 50z"/>
<path d="M4981 4587 c-17 -17 -13 -51 9 -75 24 -26 55 -29 64 -6 10 26 7 72
-6 80 -20 13 -55 13 -67 1z"/>
<path d="M5246 4535 c-21 -22 -2 -73 32 -86 21 -8 29 -7 39 7 41 56 -23 126
-71 79z"/>
<path d="M5092 4508 c-20 -20 -14 -55 14 -77 42 -33 84 2 64 53 -13 34 -55 47
-78 24z"/>
<path d="M4938 4479 c-24 -13 -23 -40 3 -73 23 -30 41 -33 63 -10 22 22 20 50
-6 74 -24 22 -35 24 -60 9z"/>
<path d="M5203 4433 c-36 -14 -1 -90 44 -97 23 -4 33 11 33 50 0 46 -32 66
-77 47z"/>
<path d="M5046 4397 c-20 -15 -18 -54 3 -49 7 1 10 -2 6 -8 -10 -17 14 -39 37
-35 29 6 39 25 32 55 -11 49 -42 63 -78 37z"/>
<path d="M5152 4318 c-18 -18 -15 -42 9 -72 25 -31 54 -34 69 -5 16 30 4 68
-26 79 -32 13 -37 13 -52 -2z"/>
<path d="M4110 3879 c-19 -5 -57 -12 -85 -15 -27 -3 -53 -8 -56 -10 -4 -2 -24
-6 -45 -10 -51 -8 -242 -75 -344 -121 -389 -175 -661 -368 -959 -677 -114
-119 -123 -133 -115 -185 5 -36 39 -194 69 -321 46 -196 167 -516 277 -735 82
-163 238 -420 308 -508 5 -7 47 -59 92 -117 199 -253 479 -522 718 -692 285
-201 677 -388 911 -433 29 -6 123 -23 164 -29 43 -8 158 -15 250 -18 l81 -2
79 64 c129 105 309 278 351 338 15 22 15 22 -21 16 -119 -19 -223 -2 -342 55
-109 53 -184 105 -279 194 -73 69 -76 73 -48 72 16 -2 38 1 49 6 19 7 19 8 -2
8 -38 2 -35 20 4 29 50 13 78 20 138 37 48 13 224 52 275 61 14 3 49 9 79 14
86 16 138 12 169 -10 25 -18 59 -25 104 -21 9 0 30 12 46 26 33 28 97 35 144
16 26 -10 30 -7 65 34 55 66 100 155 209 410 34 81 125 365 139 433 2 9 10 44
18 77 9 33 18 71 21 85 54 272 67 344 81 455 4 33 9 67 10 76 2 9 6 52 10 95
4 43 9 93 11 109 8 72 17 304 17 460 0 184 -6 263 -29 367 -15 65 -16 67 -72
100 -160 95 -414 207 -552 244 -41 10 -104 17 -171 18 -96 0 -110 -2 -160 -27
-105 -54 -159 -157 -161 -310 -1 -88 10 -275 17 -287 2 -3 6 -26 10 -50 11
-74 90 -353 154 -542 104 -306 178 -479 431 -1006 104 -217 103 -200 17 -258
-50 -34 -192 -152 -226 -187 l-23 -26 -38 25 c-72 48 -247 78 -477 83 -24 1
-43 4 -43 9 0 4 37 20 83 36 138 48 305 126 331 155 14 15 18 37 18 108 0 82
-10 221 -17 233 -2 3 -7 37 -10 75 -4 39 -9 73 -11 76 -4 6 -10 42 -19 109
-28 213 -121 570 -190 735 -7 17 -20 50 -30 75 -22 53 -159 336 -177 365 -152
238 -355 416 -602 530 -41 19 -88 35 -104 35 -16 0 -32 3 -36 7 -3 4 -12 8
-19 9 -35 6 -66 13 -104 23 -54 15 -337 22 -383 10z"/>
<path d="M5210 738 c0 -4 8 -8 18 -9 9 0 24 -2 32 -4 8 -2 33 -6 55 -9 22 -4
49 -8 60 -11 11 -2 43 -7 70 -10 28 -4 57 -8 65 -10 34 -9 239 -23 374 -25
103 -2 116 2 116 44 0 15 -4 17 -27 10 -72 -23 -475 -7 -648 25 -59 11 -115
11 -115 -1z"/>
</g>
</svg>
